<svg width="97" height="31" viewBox="0 0 97 31" fill="none" xmlns="http://www.w3.org/2000/svg">
<path d="M0.496 30.24C3.984 28.512 6.32 26.144 8.24 18.944L11.824 5.504C12.336 3.648 12.368 1.824 12.4 1.056L12.432 0.959999H16.72L16.688 1.056C16.336 1.824 15.376 3.648 14.896 5.504L11.184 19.2C8.752 28.192 4.144 29.984 0.496 30.24ZM28.2333 24L20.6813 4.48C20.6493 4.8 20.6173 5.152 20.6173 5.504V17.76C20.6173 20.352 21.5773 22.88 21.8653 23.872V24.032H18.1213V23.872C18.4093 22.88 19.3693 20.352 19.3693 17.76V5.504C19.3693 3.648 18.6653 1.824 18.4093 1.088V0.991999H22.6013L30.0893 20.288L37.5453 0.959999H41.3533V1.056C41.1933 1.824 40.7133 3.648 40.7133 5.504V19.456C40.7133 21.312 41.1933 23.136 41.3533 23.904V24H36.9053V23.904C37.0653 23.136 37.5453 21.312 37.5453 19.456V4.384L30.0253 24H28.2333ZM50.8465 12.672H47.2625V22.848H53.1505C55.4545 22.848 57.7585 20.576 58.6225 20.064H58.7825V24H43.4225V23.904C43.5825 23.136 44.0625 21.312 44.0625 19.456V5.504C44.0625 3.648 43.5825 1.824 43.4225 1.056V0.959999H58.6865V4.864H58.5265C57.6625 4.352 55.3585 2.112 53.0545 2.112H47.2625V11.616H50.8465C53.0545 11.616 55.2305 10.72 56.0945 10.464H56.1905V13.792H56.0945C55.2305 13.536 53.0545 12.672 50.8465 12.672ZM66.1608 1.056C65.9688 1.824 65.4888 3.648 65.4888 5.504V22.848H70.3848C72.6888 22.848 74.9928 20.288 75.8568 19.584H76.0168V24H61.6488V23.904C61.8088 23.136 62.2888 21.312 62.2888 19.456V5.504C62.2888 3.648 61.8088 1.824 61.6488 1.056V0.959999H66.1608V1.056ZM85.9225 24.384C80.1625 24.384 75.3625 19.264 75.3625 12.384C75.3625 5.504 80.1625 0.639999 85.9225 0.639999C91.6505 0.639999 96.4825 5.536 96.4825 12.384C96.4825 19.264 91.6505 24.384 85.9225 24.384ZM85.9225 23.2C90.2105 23.2 92.8665 17.856 92.8665 12.352C92.8665 6.912 90.2105 1.824 85.9225 1.824C81.6345 1.824 78.9785 6.944 78.9785 12.384C78.9785 17.92 81.6345 23.2 85.9225 23.2Z" fill="black"/>
</svg>
